<svg width="100%" viewBox="0 0 680 450" role="img" xmlns="http://www.w3.org/2000/svg">
<title>Distribuição dos serviços entre as VMs</title>
<desc>Quatro caixas de VM mostrando quais servicos rodam em cada uma: gateway, apps .NET, apps PHP e dados.</desc>
<style>
.th{font-family:ui-sans-serif,system-ui,-apple-system,'Segoe UI',sans-serif;font-size:14px;font-weight:500}
.ts{font-family:ui-sans-serif,system-ui,-apple-system,'Segoe UI',sans-serif;font-size:12px;font-weight:400}
</style>
<defs><marker id="arrow3" viewBox="0 0 10 10" refX="8" refY="5" markerWidth="6" markerHeight="6" orient="auto-start-reverse"><path d="M2 1L8 5L2 9" fill="none" stroke="#5F5E5A" stroke-width="1.5" stroke-linecap="round" stroke-linejoin="round"/></marker></defs>
<g>
  <rect x="50" y="40" width="280" height="150" rx="12" fill="#EFF7E2" stroke="#76a432" stroke-width="0.5"/>
  <text class="th" x="70" y="66" fill="#3f5c15">vm1 — gateway (pública)</text>
  <text class="ts" x="70" y="94" fill="#4a6b1e">Nginx TLS + proxy reverso</text>
  <text class="ts" x="70" y="114" fill="#4a6b1e">WireGuard (acesso admin)</text>
  <text class="ts" x="70" y="134" fill="#4a6b1e">Certbot, Fail2Ban, UFW</text>
  <text class="ts" x="70" y="154" fill="#4a6b1e">Handler de webhooks</text>
</g>
<g>
  <rect x="350" y="40" width="280" height="190" rx="12" fill="#F3EAF6" stroke="#79378B" stroke-width="0.5"/>
  <text class="th" x="370" y="66" fill="#5e2b6c">vm4 — apps .NET (privada)</text>
  <text class="ts" x="370" y="94" fill="#79378B">Worker de automação (fila)</text>
  <text class="ts" x="370" y="114" fill="#79378B">API de gestão do bot</text>
  <text class="ts" x="370" y="134" fill="#79378B">Cofre de config e segredos</text>
  <text class="ts" x="370" y="154" fill="#79378B">API de alertas e notificações</text>
  <text class="ts" x="370" y="174" fill="#79378B">Bot de trading (cripto)</text>
  <text class="ts" x="370" y="194" fill="#79378B">APIs financeiras (cotações, FX)</text>
</g>
<g>
  <rect x="50" y="250" width="280" height="170" rx="12" fill="#F3EAF6" stroke="#79378B" stroke-width="0.5"/>
  <text class="th" x="70" y="276" fill="#5e2b6c">vm3 — apps PHP (privada)</text>
  <text class="ts" x="70" y="304" fill="#79378B">Ingestão de logs + dashboard</text>
  <text class="ts" x="70" y="324" fill="#79378B">APIs utilitárias internas</text>
  <text class="ts" x="70" y="344" fill="#79378B">APIs públicas de dados</text>
  <text class="ts" x="70" y="364" fill="#79378B">APIs de câmbio e moedas</text>
</g>
<g>
  <rect x="350" y="290" width="280" height="130" rx="12" fill="#FAECE7" stroke="#993C1D" stroke-width="0.5"/>
  <text class="th" x="370" y="316" fill="#712B13">vm2 — dados (privada)</text>
  <text class="ts" x="370" y="344" fill="#993C1D">MariaDB (bancos das apps)</text>
  <text class="ts" x="370" y="364" fill="#993C1D">Redis (cache, rate limits)</text>
  <text class="ts" x="370" y="384" fill="#993C1D">LavinMQ (fila de webhooks)</text>
</g>
<line x1="330" y1="115" x2="348" y2="115" stroke="#5F5E5A" stroke-width="1.5" marker-end="url(#arrow3)"/>
<line x1="190" y1="190" x2="190" y2="248" stroke="#5F5E5A" stroke-width="1.5" marker-end="url(#arrow3)"/>
<line x1="490" y1="230" x2="490" y2="288" stroke="#5F5E5A" stroke-width="1.5" marker-end="url(#arrow3)"/>
<line x1="330" y1="355" x2="348" y2="355" stroke="#5F5E5A" stroke-width="1.5" marker-end="url(#arrow3)"/>
</svg>
