<svg xmlns="http://www.w3.org/2000/svg" viewBox="0 0 860 460" font-family="system-ui, -apple-system, 'Segoe UI', Roboto, sans-serif" role="img" aria-label="Anúncios de vagas de desenvolvimento de software (EUA)">
<rect width="860" height="460" rx="14" fill="#FBFCFE" stroke="#E3E9F0"/>
<text x="64" y="34" font-size="20" font-weight="700" fill="#22303F">Anúncios de vagas de desenvolvimento de software (EUA)</text>
<text x="64" y="56" font-size="13" fill="#7A8899">Indeed Job Postings Index · 1º fev/2020 = 100 · médias anuais aproximadas da série</text>
<line x1="64" y1="396.0" x2="836" y2="396.0" stroke="#E3E9F0"/>
<text x="54" y="400.0" font-size="12" fill="#7A8899" text-anchor="end">0</text>
<line x1="64" y1="329.3" x2="836" y2="329.3" stroke="#E3E9F0"/>
<text x="54" y="333.3" font-size="12" fill="#7A8899" text-anchor="end">50</text>
<line x1="64" y1="262.7" x2="836" y2="262.7" stroke="#E3E9F0"/>
<text x="54" y="266.7" font-size="12" fill="#7A8899" text-anchor="end">100</text>
<line x1="64" y1="196.0" x2="836" y2="196.0" stroke="#E3E9F0"/>
<text x="54" y="200.0" font-size="12" fill="#7A8899" text-anchor="end">150</text>
<line x1="64" y1="129.3" x2="836" y2="129.3" stroke="#E3E9F0"/>
<text x="54" y="133.3" font-size="12" fill="#7A8899" text-anchor="end">200</text>
<text x="64.0" y="418" font-size="12" fill="#7A8899" text-anchor="middle">2019*</text>
<text x="174.3" y="418" font-size="12" fill="#7A8899" text-anchor="middle">2020</text>
<text x="284.6" y="418" font-size="12" fill="#7A8899" text-anchor="middle">2021</text>
<text x="394.9" y="418" font-size="12" fill="#7A8899" text-anchor="middle">2022</text>
<text x="505.1" y="418" font-size="12" fill="#7A8899" text-anchor="middle">2023</text>
<text x="615.4" y="418" font-size="12" fill="#7A8899" text-anchor="middle">2024</text>
<text x="725.7" y="418" font-size="12" fill="#7A8899" text-anchor="middle">2025</text>
<text x="836.0" y="418" font-size="12" fill="#7A8899" text-anchor="middle">2026</text>
<text x="18" y="236" font-size="12" fill="#7A8899" text-anchor="middle" transform="rotate(-90 18 236)">Índice (fev/2020 = 100)</text>
<line x1="394.9" y1="76" x2="394.9" y2="396" stroke="#7A8899" stroke-dasharray="3 4" opacity="0.55"/>
<text x="399.9" y="90" font-size="11" fill="#7A8899">Pico: +120% (fev/22)</text>
<line x1="725.7" y1="76" x2="725.7" y2="396" stroke="#7A8899" stroke-dasharray="3 4" opacity="0.55"/>
<text x="730.7" y="90" font-size="11" fill="#7A8899">Vale: 61 (mai/25)</text>
<polyline points="64.0,262.7 174.3,278.7 284.6,212.0 394.9,122.7 505.1,238.7 615.4,289.3 725.7,310.7 836.0,300.0" fill="none" stroke="#2563EB" stroke-width="3" stroke-linejoin="round" stroke-linecap="round"/>
<circle cx="64.0" cy="262.7" r="3.5" fill="#FBFCFE" stroke="#2563EB" stroke-width="2.5"/>
<circle cx="174.3" cy="278.7" r="3.5" fill="#FBFCFE" stroke="#2563EB" stroke-width="2.5"/>
<circle cx="284.6" cy="212.0" r="3.5" fill="#FBFCFE" stroke="#2563EB" stroke-width="2.5"/>
<circle cx="394.9" cy="122.7" r="3.5" fill="#FBFCFE" stroke="#2563EB" stroke-width="2.5"/>
<circle cx="505.1" cy="238.7" r="3.5" fill="#FBFCFE" stroke="#2563EB" stroke-width="2.5"/>
<circle cx="615.4" cy="289.3" r="3.5" fill="#FBFCFE" stroke="#2563EB" stroke-width="2.5"/>
<circle cx="725.7" cy="310.7" r="3.5" fill="#FBFCFE" stroke="#2563EB" stroke-width="2.5"/>
<circle cx="836.0" cy="300.0" r="3.5" fill="#FBFCFE" stroke="#2563EB" stroke-width="2.5"/>
<line x1="64" y1="440" x2="90" y2="440" stroke="#2563EB" stroke-width="3" stroke-linecap="round"/>
<text x="98" y="444" font-size="13" fill="#22303F">Vagas de software dev (índice Indeed)</text>
</svg>