<svg xmlns="http://www.w3.org/2000/svg" viewBox="0 0 860 460" font-family="system-ui, -apple-system, 'Segoe UI', Roboto, sans-serif" role="img" aria-label="Demissões em empresas de tecnologia (mundo)">
<rect width="860" height="460" rx="14" fill="#FBFCFE" stroke="#E3E9F0"/>
<text x="64" y="34" font-size="20" font-weight="700" fill="#22303F">Demissões em empresas de tecnologia (mundo)</text>
<text x="64" y="56" font-size="13" fill="#7A8899">layoffs.fyi · milhares de pessoas · 2026 = até abril</text>
<line x1="64" y1="396.0" x2="836" y2="396.0" stroke="#E3E9F0"/>
<text x="54" y="400.0" font-size="12" fill="#7A8899" text-anchor="end">0</text>
<line x1="64" y1="289.3" x2="836" y2="289.3" stroke="#E3E9F0"/>
<text x="54" y="293.3" font-size="12" fill="#7A8899" text-anchor="end">100</text>
<line x1="64" y1="182.7" x2="836" y2="182.7" stroke="#E3E9F0"/>
<text x="54" y="186.7" font-size="12" fill="#7A8899" text-anchor="end">200</text>
<line x1="64" y1="76.0" x2="836" y2="76.0" stroke="#E3E9F0"/>
<text x="54" y="80.0" font-size="12" fill="#7A8899" text-anchor="end">300</text>
<text x="119.1" y="418" font-size="12" fill="#7A8899" text-anchor="middle">2020</text>
<rect x="96.1" y="310.7" width="40.0" height="85.3" rx="5" fill="#DC2626"/>
<text x="116.1" y="303.7" font-size="12" font-weight="600" fill="#22303F" text-anchor="middle">80</text>
<text x="229.4" y="418" font-size="12" fill="#7A8899" text-anchor="middle">2021</text>
<rect x="206.4" y="380.0" width="40.0" height="16.0" rx="5" fill="#DC2626"/>
<text x="226.4" y="373.0" font-size="12" font-weight="600" fill="#22303F" text-anchor="middle">15</text>
<text x="339.7" y="418" font-size="12" fill="#7A8899" text-anchor="middle">2022</text>
<rect x="316.7" y="220.0" width="40.0" height="176.0" rx="5" fill="#DC2626"/>
<text x="336.7" y="213.0" font-size="12" font-weight="600" fill="#22303F" text-anchor="middle">165</text>
<text x="450.0" y="418" font-size="12" fill="#7A8899" text-anchor="middle">2023</text>
<rect x="427.0" y="114.4" width="40.0" height="281.6" rx="5" fill="#DC2626"/>
<text x="447.0" y="107.4" font-size="12" font-weight="600" fill="#22303F" text-anchor="middle">264</text>
<text x="560.3" y="418" font-size="12" fill="#7A8899" text-anchor="middle">2024</text>
<rect x="537.3" y="232.8" width="40.0" height="163.2" rx="5" fill="#DC2626"/>
<text x="557.3" y="225.8" font-size="12" font-weight="600" fill="#22303F" text-anchor="middle">153</text>
<text x="670.6" y="418" font-size="12" fill="#7A8899" text-anchor="middle">2025</text>
<rect x="647.6" y="263.7" width="40.0" height="132.3" rx="5" fill="#DC2626"/>
<text x="667.6" y="256.7" font-size="12" font-weight="600" fill="#22303F" text-anchor="middle">124</text>
<text x="780.9" y="418" font-size="12" fill="#7A8899" text-anchor="middle">2026*</text>
<rect x="757.9" y="297.9" width="40.0" height="98.1" rx="5" fill="#DC2626"/>
<text x="777.9" y="290.9" font-size="12" font-weight="600" fill="#22303F" text-anchor="middle">92</text>
<rect x="64" y="431" width="16" height="12" rx="3" fill="#DC2626"/>
<text x="88" y="441" font-size="13" fill="#22303F">Demitidos (milhares)</text>
</svg>