<svg xmlns="http://www.w3.org/2000/svg" width="680" height="400" viewBox="0 0 680 400" role="img" aria-label="Capa do caso 02 da série Post-mortem de carreira: sete empresas em 2,7 anos">
  <title>Capa do caso 02 da série Post-mortem de carreira: sete empresas em 2,7 anos</title>
  <rect x="0" y="0" width="680" height="400" fill="#f5f0e8"/>
  <rect x="22" y="22" width="636" height="356" fill="none" stroke="#ddd4c6" stroke-width="1"/>
  <rect x="52" y="65" width="8" height="8" fill="#b85c00"/>
  <text x="70" y="73" font-family="'JetBrains Mono', 'Courier New', monospace" font-size="9.5" letter-spacing="1.6" fill="#b85c00">POST-MORTEM DE CARREIRA &#183; CASO 02</text>
  <text x="52" y="128" font-family="'Playfair Display', Georgia, 'Times New Roman', serif" font-size="34" fill="#1a1714">Sete empresas</text>
  <text x="52" y="170" font-family="'Playfair Display', Georgia, 'Times New Roman', serif" font-size="34" font-style="italic" fill="#2d6a4f">em 2,7 anos</text>
  <rect x="52" y="190" width="56" height="3" fill="#b85c00"/>
  <text x="52" y="220" font-family="'Source Serif 4', Georgia, serif" font-size="13" fill="#5a534a">Ele achou perseguição.</text>
  <text x="52" y="240" font-family="'Source Serif 4', Georgia, serif" font-size="13" fill="#5a534a">O currículo contava outra história.</text>
  <g transform="translate(392,110)">
    <line x1="0" y1="80" x2="236" y2="80" stroke="#e2dbd0" stroke-width="1.5"/>
    <rect x="0" y="61" width="28" height="19" rx="2" fill="#b85c00" opacity="0.55"/>
    <circle cx="14.0" cy="80" r="2" fill="#8a8078"/>
    <rect x="38" y="65" width="16" height="15" rx="2" fill="#b85c00" opacity="0.55"/>
    <circle cx="46.0" cy="80" r="2" fill="#8a8078"/>
    <rect x="68" y="59" width="34" height="21" rx="2" fill="#b85c00" opacity="0.55"/>
    <circle cx="85.0" cy="80" r="2" fill="#8a8078"/>
    <rect x="110" y="64" width="20" height="16" rx="2" fill="#b85c00" opacity="0.55"/>
    <circle cx="120.0" cy="80" r="2" fill="#8a8078"/>
    <rect x="146" y="66" width="12" height="14" rx="2" fill="#b85c00" opacity="0.55"/>
    <circle cx="152.0" cy="80" r="2" fill="#8a8078"/>
    <rect x="170" y="56" width="44" height="24" rx="2" fill="#2d6a4f" opacity="0.85"/>
    <circle cx="192.0" cy="80" r="2" fill="#8a8078"/>
    <rect x="224" y="64" width="18" height="16" rx="2" fill="#b85c00" opacity="0.55"/>
    <circle cx="233.0" cy="80" r="2" fill="#8a8078"/>
    <text x="0" y="104" font-family="'JetBrains Mono', 'Courier New', monospace" font-size="9" letter-spacing="1.2" fill="#8a8078">7 EMPRESAS &#183; 2,7 ANOS</text>
    <text x="0" y="-16" font-family="'JetBrains Mono', 'Courier New', monospace" font-size="9" letter-spacing="1.2" fill="#8a8078">LINHA DO TEMPO DECLARADA</text>
  </g>
  <line x1="52" y1="332" x2="628" y2="332" stroke="#e2dbd0" stroke-width="1"/>
  <text x="52" y="352" font-family="'JetBrains Mono', 'Courier New', monospace" font-size="9.5" letter-spacing="0.8" fill="#8a8078">guilherme.stracini.com.br/blog</text>
  <text x="628" y="352" text-anchor="end" font-family="'JetBrains Mono', 'Courier New', monospace" font-size="9.5" letter-spacing="0.8" fill="#8a8078">CASO 02 &#183; SEM NOMES</text>
</svg>
